<svg xmlns="http://www.w3.org/2000/svg" xmlns:xlink="http://www.w3.org/1999/xlink" width="500" zoomAndPan="magnify" viewBox="0 0 375 225" height="300" preserveAspectRatio="xMidYMid meet" version="1.0"><defs><g/><clipPath id="d9eb05a8b3"><path d="M 193.28125 0 L 375 0 L 375 154.890625 L 193.28125 154.890625 Z M 193.28125 0 " clip-rule="nonzero"/></clipPath></defs><g clip-path="url(#d9eb05a8b3)"><path fill="#4958db" d="M 373.421875 121.488281 C 358.785156 94.320312 341.773438 47.960938 339.777344 42.476562 C 337.808594 20.441406 326.464844 9.460938 325.980469 9 L 322.019531 5.246094 L 319.234375 9.941406 C 313.839844 19.046875 311.441406 26.386719 310.382812 31.140625 C 305.730469 29.613281 300.886719 28.726562 295.890625 28.472656 C 278.957031 24.699219 251.289062 16.363281 235.738281 0.0703125 C 235.738281 0.0703125 242.671875 17.101562 263.804688 25.828125 C 253.976562 22.679688 231.933594 17.445312 210.730469 25.078125 C 210.730469 25.078125 244.453125 21.667969 258.660156 33.035156 C 258.660156 33.035156 240.285156 36.824219 226.265625 33.035156 C 226.265625 33.035156 234.980469 38.339844 244.453125 37.582031 C 244.453125 37.582031 217.929688 52.738281 193.300781 55.390625 C 193.300781 55.390625 212.421875 58.296875 229.296875 51.601562 C 232.6875 50.257812 240.308594 47 245.414062 44.804688 C 236.222656 50.921875 230.476562 56.464844 230.152344 56.777344 L 227.027344 59.816406 C 227.027344 59.816406 276.011719 24.925781 312.105469 41.144531 L 318.246094 43.941406 L 318.246094 37.207031 C 318.25 37.128906 318.429688 30.652344 323.640625 20.074219 C 326.53125 24.617188 330.226562 32.460938 331.144531 43.773438 L 331.191406 44.351562 L 331.386719 44.898438 C 332.132812 46.96875 349.734375 95.699219 365.46875 125.097656 C 364.90625 126.007812 362.828125 127.882812 359.261719 128.960938 C 357.140625 129.601562 351.730469 130.695312 347.386719 127.039062 C 344.792969 124.855469 341.359375 122.746094 337.386719 120.304688 C 324.039062 112.101562 307.433594 101.894531 310.796875 82.234375 L 313.507812 66.390625 L 303.167969 78.695312 C 302.898438 79.011719 296.5625 86.632812 292.1875 99.003906 C 286.382812 115.425781 286.796875 132.546875 293.382812 148.515625 C 294.191406 150.472656 295.15625 152.589844 296.183594 154.835938 C 296.183594 154.835938 288.917969 111.949219 302.753906 96.140625 C 306.957031 111.828125 322.03125 121.09375 332.824219 127.730469 C 336.5 129.988281 339.675781 131.941406 341.773438 133.707031 C 351.019531 141.492188 363.644531 138.113281 369.660156 133.226562 C 374.832031 129.019531 374.992188 124.40625 373.421875 121.488281 " fill-opacity="1" fill-rule="nonzero"/></g><g fill="#4958db" fill-opacity="1"><g transform="translate(172.627844, 152.601499)"><g><path d="M 70.734375 -1.359375 L 36.5 -89.4375 C 36.15625 -90.34375 34.578125 -90.34375 34.25 -89.4375 L 0.109375 -1.359375 C -0.21875 -0.671875 0.21875 0 1.234375 0 L 16.671875 0 C 17.125 0 17.6875 -0.21875 17.796875 -0.671875 L 35.375 -50.90625 L 53.171875 -0.671875 C 53.28125 -0.21875 53.84375 0 54.1875 0 L 69.71875 0 C 70.515625 0 71.078125 -0.671875 70.734375 -1.359375 Z M 70.734375 -1.359375 "/></g></g></g><g fill="#65e7de" fill-opacity="1"><g transform="translate(119.696772, 152.601499)"><g><path d="M 70.734375 -1.359375 L 36.5 -89.4375 C 36.15625 -90.34375 34.578125 -90.34375 34.25 -89.4375 L 0.109375 -1.359375 C -0.21875 -0.671875 0.21875 0 1.234375 0 L 16.671875 0 C 17.125 0 17.6875 -0.21875 17.796875 -0.671875 L 35.375 -50.90625 L 53.171875 -0.671875 C 53.28125 -0.21875 53.84375 0 54.1875 0 L 69.71875 0 C 70.515625 0 71.078125 -0.671875 70.734375 -1.359375 Z M 70.734375 -1.359375 "/></g></g></g><g fill="#4958db" fill-opacity="1"><g transform="translate(225.871001, 152.601499)"><g><path d="M 70.734375 -1.359375 L 36.5 -89.4375 C 36.15625 -90.34375 34.578125 -90.34375 34.25 -89.4375 L 0.109375 -1.359375 C -0.21875 -0.671875 0.21875 0 1.234375 0 L 16.671875 0 C 17.125 0 17.6875 -0.21875 17.796875 -0.671875 L 35.375 -50.90625 L 53.171875 -0.671875 C 53.28125 -0.21875 53.84375 0 54.1875 0 L 69.71875 0 C 70.515625 0 71.078125 -0.671875 70.734375 -1.359375 Z M 70.734375 -1.359375 "/></g></g></g><g fill="#65e7de" fill-opacity="1"><g transform="translate(66.886975, 152.601499)"><g><path d="M 70.734375 -1.359375 L 36.5 -89.4375 C 36.15625 -90.34375 34.578125 -90.34375 34.25 -89.4375 L 0.109375 -1.359375 C -0.21875 -0.671875 0.21875 0 1.234375 0 L 16.671875 0 C 17.125 0 17.6875 -0.21875 17.796875 -0.671875 L 35.375 -50.90625 L 53.171875 -0.671875 C 53.28125 -0.21875 53.84375 0 54.1875 0 L 69.71875 0 C 70.515625 0 71.078125 -0.671875 70.734375 -1.359375 Z M 70.734375 -1.359375 "/></g></g></g><g fill="#12172b" fill-opacity="1"><g transform="translate(14.297275, 192.709796)"><g><path d="M 10.953125 -1.15625 L 10.953125 0 L 2.046875 0 L 2.046875 -12.59375 L 10.6875 -12.59375 L 10.6875 -11.4375 L 3.375 -11.4375 L 3.375 -6.953125 L 9.890625 -6.953125 L 9.890625 -5.828125 L 3.375 -5.828125 L 3.375 -1.15625 Z M 10.953125 -1.15625 "/></g></g></g><g fill="#12172b" fill-opacity="1"><g transform="translate(29.613249, 192.709796)"><g><path d="M 5.515625 0.109375 C 4.585938 0.109375 3.691406 -0.0390625 2.828125 -0.34375 C 1.972656 -0.644531 1.3125 -1.039062 0.84375 -1.53125 L 1.359375 -2.546875 C 1.816406 -2.097656 2.421875 -1.734375 3.171875 -1.453125 C 3.929688 -1.171875 4.710938 -1.03125 5.515625 -1.03125 C 6.648438 -1.03125 7.5 -1.234375 8.0625 -1.640625 C 8.625 -2.054688 8.90625 -2.59375 8.90625 -3.25 C 8.90625 -3.757812 8.75 -4.160156 8.4375 -4.453125 C 8.132812 -4.753906 7.757812 -4.984375 7.3125 -5.140625 C 6.875 -5.304688 6.257812 -5.488281 5.46875 -5.6875 C 4.519531 -5.925781 3.765625 -6.15625 3.203125 -6.375 C 2.640625 -6.59375 2.15625 -6.929688 1.75 -7.390625 C 1.351562 -7.847656 1.15625 -8.46875 1.15625 -9.25 C 1.15625 -9.882812 1.320312 -10.460938 1.65625 -10.984375 C 1.988281 -11.503906 2.503906 -11.921875 3.203125 -12.234375 C 3.898438 -12.546875 4.765625 -12.703125 5.796875 -12.703125 C 6.515625 -12.703125 7.21875 -12.601562 7.90625 -12.40625 C 8.59375 -12.207031 9.1875 -11.929688 9.6875 -11.578125 L 9.25 -10.515625 C 8.71875 -10.867188 8.148438 -11.128906 7.546875 -11.296875 C 6.953125 -11.472656 6.367188 -11.5625 5.796875 -11.5625 C 4.691406 -11.5625 3.859375 -11.347656 3.296875 -10.921875 C 2.742188 -10.492188 2.46875 -9.945312 2.46875 -9.28125 C 2.46875 -8.78125 2.617188 -8.375 2.921875 -8.0625 C 3.222656 -7.757812 3.601562 -7.523438 4.0625 -7.359375 C 4.53125 -7.203125 5.15625 -7.023438 5.9375 -6.828125 C 6.851562 -6.609375 7.597656 -6.382812 8.171875 -6.15625 C 8.742188 -5.9375 9.226562 -5.601562 9.625 -5.15625 C 10.019531 -4.707031 10.21875 -4.097656 10.21875 -3.328125 C 10.21875 -2.691406 10.046875 -2.113281 9.703125 -1.59375 C 9.359375 -1.070312 8.832031 -0.65625 8.125 -0.34375 C 7.414062 -0.0390625 6.546875 0.109375 5.515625 0.109375 Z M 5.515625 0.109375 "/></g></g></g><g fill="#12172b" fill-opacity="1"><g transform="translate(43.958535, 192.709796)"><g><path d="M 4.5 -11.4375 L 0.078125 -11.4375 L 0.078125 -12.59375 L 10.25 -12.59375 L 10.25 -11.4375 L 5.828125 -11.4375 L 5.828125 0 L 4.5 0 Z M 4.5 -11.4375 "/></g></g></g><g fill="#12172b" fill-opacity="1"><g transform="translate(57.56682, 192.709796)"><g><path d="M 10.640625 0 L 7.765625 -4.046875 C 7.441406 -4.015625 7.109375 -4 6.765625 -4 L 3.375 -4 L 3.375 0 L 2.046875 0 L 2.046875 -12.59375 L 6.765625 -12.59375 C 8.367188 -12.59375 9.625 -12.207031 10.53125 -11.4375 C 11.445312 -10.664062 11.90625 -9.609375 11.90625 -8.265625 C 11.90625 -7.285156 11.65625 -6.457031 11.15625 -5.78125 C 10.65625 -5.101562 9.945312 -4.613281 9.03125 -4.3125 L 12.109375 0 Z M 6.71875 -5.125 C 7.96875 -5.125 8.921875 -5.398438 9.578125 -5.953125 C 10.242188 -6.503906 10.578125 -7.273438 10.578125 -8.265625 C 10.578125 -9.285156 10.242188 -10.066406 9.578125 -10.609375 C 8.921875 -11.160156 7.96875 -11.4375 6.71875 -11.4375 L 3.375 -11.4375 L 3.375 -5.125 Z M 6.71875 -5.125 "/></g></g></g><g fill="#12172b" fill-opacity="1"><g transform="translate(73.853484, 192.709796)"><g><path d="M 7.125 0.109375 C 5.488281 0.109375 4.210938 -0.359375 3.296875 -1.296875 C 2.390625 -2.234375 1.9375 -3.59375 1.9375 -5.375 L 1.9375 -12.59375 L 3.265625 -12.59375 L 3.265625 -5.4375 C 3.265625 -3.96875 3.59375 -2.875 4.25 -2.15625 C 4.914062 -1.4375 5.875 -1.078125 7.125 -1.078125 C 8.382812 -1.078125 9.34375 -1.4375 10 -2.15625 C 10.65625 -2.875 10.984375 -3.96875 10.984375 -5.4375 L 10.984375 -12.59375 L 12.28125 -12.59375 L 12.28125 -5.375 C 12.28125 -3.59375 11.828125 -2.234375 10.921875 -1.296875 C 10.015625 -0.359375 8.75 0.109375 7.125 0.109375 Z M 7.125 0.109375 "/></g></g></g><g fill="#12172b" fill-opacity="1"><g transform="translate(91.380467, 192.709796)"><g><path d="M 7.515625 0.109375 C 6.265625 0.109375 5.140625 -0.164062 4.140625 -0.71875 C 3.140625 -1.269531 2.351562 -2.035156 1.78125 -3.015625 C 1.21875 -3.992188 0.9375 -5.085938 0.9375 -6.296875 C 0.9375 -7.503906 1.21875 -8.597656 1.78125 -9.578125 C 2.351562 -10.554688 3.144531 -11.320312 4.15625 -11.875 C 5.164062 -12.425781 6.289062 -12.703125 7.53125 -12.703125 C 8.46875 -12.703125 9.332031 -12.546875 10.125 -12.234375 C 10.914062 -11.921875 11.585938 -11.460938 12.140625 -10.859375 L 11.296875 -10.015625 C 10.304688 -11.015625 9.066406 -11.515625 7.578125 -11.515625 C 6.578125 -11.515625 5.671875 -11.285156 4.859375 -10.828125 C 4.046875 -10.367188 3.40625 -9.742188 2.9375 -8.953125 C 2.476562 -8.160156 2.25 -7.273438 2.25 -6.296875 C 2.25 -5.304688 2.476562 -4.414062 2.9375 -3.625 C 3.40625 -2.84375 4.046875 -2.222656 4.859375 -1.765625 C 5.671875 -1.304688 6.578125 -1.078125 7.578125 -1.078125 C 9.085938 -1.078125 10.328125 -1.582031 11.296875 -2.59375 L 12.140625 -1.75 C 11.585938 -1.144531 10.910156 -0.679688 10.109375 -0.359375 C 9.316406 -0.046875 8.453125 0.109375 7.515625 0.109375 Z M 7.515625 0.109375 "/></g></g></g><g fill="#12172b" fill-opacity="1"><g transform="translate(107.59522, 192.709796)"><g><path d="M 4.5 -11.4375 L 0.078125 -11.4375 L 0.078125 -12.59375 L 10.25 -12.59375 L 10.25 -11.4375 L 5.828125 -11.4375 L 5.828125 0 L 4.5 0 Z M 4.5 -11.4375 "/></g></g></g><g fill="#12172b" fill-opacity="1"><g transform="translate(121.2035, 192.709796)"><g><path d="M 7.125 0.109375 C 5.488281 0.109375 4.210938 -0.359375 3.296875 -1.296875 C 2.390625 -2.234375 1.9375 -3.59375 1.9375 -5.375 L 1.9375 -12.59375 L 3.265625 -12.59375 L 3.265625 -5.4375 C 3.265625 -3.96875 3.59375 -2.875 4.25 -2.15625 C 4.914062 -1.4375 5.875 -1.078125 7.125 -1.078125 C 8.382812 -1.078125 9.34375 -1.4375 10 -2.15625 C 10.65625 -2.875 10.984375 -3.96875 10.984375 -5.4375 L 10.984375 -12.59375 L 12.28125 -12.59375 L 12.28125 -5.375 C 12.28125 -3.59375 11.828125 -2.234375 10.921875 -1.296875 C 10.015625 -0.359375 8.75 0.109375 7.125 0.109375 Z M 7.125 0.109375 "/></g></g></g><g fill="#12172b" fill-opacity="1"><g transform="translate(138.730479, 192.709796)"><g><path d="M 10.640625 0 L 7.765625 -4.046875 C 7.441406 -4.015625 7.109375 -4 6.765625 -4 L 3.375 -4 L 3.375 0 L 2.046875 0 L 2.046875 -12.59375 L 6.765625 -12.59375 C 8.367188 -12.59375 9.625 -12.207031 10.53125 -11.4375 C 11.445312 -10.664062 11.90625 -9.609375 11.90625 -8.265625 C 11.90625 -7.285156 11.65625 -6.457031 11.15625 -5.78125 C 10.65625 -5.101562 9.945312 -4.613281 9.03125 -4.3125 L 12.109375 0 Z M 6.71875 -5.125 C 7.96875 -5.125 8.921875 -5.398438 9.578125 -5.953125 C 10.242188 -6.503906 10.578125 -7.273438 10.578125 -8.265625 C 10.578125 -9.285156 10.242188 -10.066406 9.578125 -10.609375 C 8.921875 -11.160156 7.96875 -11.4375 6.71875 -11.4375 L 3.375 -11.4375 L 3.375 -5.125 Z M 6.71875 -5.125 "/></g></g></g><g fill="#12172b" fill-opacity="1"><g transform="translate(155.017138, 192.709796)"><g><path d="M 9.953125 -3.359375 L 2.9375 -3.359375 L 1.421875 0 L 0.03125 0 L 5.796875 -12.59375 L 7.109375 -12.59375 L 12.859375 0 L 11.453125 0 Z M 9.453125 -4.4375 L 6.4375 -11.203125 L 3.421875 -4.4375 Z M 9.453125 -4.4375 "/></g></g></g><g fill="#12172b" fill-opacity="1"><g transform="translate(171.195945, 192.709796)"><g><path d="M 5.515625 0.109375 C 4.585938 0.109375 3.691406 -0.0390625 2.828125 -0.34375 C 1.972656 -0.644531 1.3125 -1.039062 0.84375 -1.53125 L 1.359375 -2.546875 C 1.816406 -2.097656 2.421875 -1.734375 3.171875 -1.453125 C 3.929688 -1.171875 4.710938 -1.03125 5.515625 -1.03125 C 6.648438 -1.03125 7.5 -1.234375 8.0625 -1.640625 C 8.625 -2.054688 8.90625 -2.59375 8.90625 -3.25 C 8.90625 -3.757812 8.75 -4.160156 8.4375 -4.453125 C 8.132812 -4.753906 7.757812 -4.984375 7.3125 -5.140625 C 6.875 -5.304688 6.257812 -5.488281 5.46875 -5.6875 C 4.519531 -5.925781 3.765625 -6.15625 3.203125 -6.375 C 2.640625 -6.59375 2.15625 -6.929688 1.75 -7.390625 C 1.351562 -7.847656 1.15625 -8.46875 1.15625 -9.25 C 1.15625 -9.882812 1.320312 -10.460938 1.65625 -10.984375 C 1.988281 -11.503906 2.503906 -11.921875 3.203125 -12.234375 C 3.898438 -12.546875 4.765625 -12.703125 5.796875 -12.703125 C 6.515625 -12.703125 7.21875 -12.601562 7.90625 -12.40625 C 8.59375 -12.207031 9.1875 -11.929688 9.6875 -11.578125 L 9.25 -10.515625 C 8.71875 -10.867188 8.148438 -11.128906 7.546875 -11.296875 C 6.953125 -11.472656 6.367188 -11.5625 5.796875 -11.5625 C 4.691406 -11.5625 3.859375 -11.347656 3.296875 -10.921875 C 2.742188 -10.492188 2.46875 -9.945312 2.46875 -9.28125 C 2.46875 -8.78125 2.617188 -8.375 2.921875 -8.0625 C 3.222656 -7.757812 3.601562 -7.523438 4.0625 -7.359375 C 4.53125 -7.203125 5.15625 -7.023438 5.9375 -6.828125 C 6.851562 -6.609375 7.597656 -6.382812 8.171875 -6.15625 C 8.742188 -5.9375 9.226562 -5.601562 9.625 -5.15625 C 10.019531 -4.707031 10.21875 -4.097656 10.21875 -3.328125 C 10.21875 -2.691406 10.046875 -2.113281 9.703125 -1.59375 C 9.359375 -1.070312 8.832031 -0.65625 8.125 -0.34375 C 7.414062 -0.0390625 6.546875 0.109375 5.515625 0.109375 Z M 5.515625 0.109375 "/></g></g></g><g fill="#12172b" fill-opacity="1"><g transform="translate(185.541225, 192.709796)"><g/></g></g><g fill="#12172b" fill-opacity="1"><g transform="translate(193.541104, 192.709796)"><g><path d="M 6.359375 -4.359375 L 6.359375 0 L 5.046875 0 L 5.046875 -4.359375 L 0.015625 -12.59375 L 1.4375 -12.59375 L 5.75 -5.515625 L 10.078125 -12.59375 L 11.40625 -12.59375 Z M 6.359375 -4.359375 "/></g></g></g><g fill="#12172b" fill-opacity="1"><g transform="translate(208.245911, 192.709796)"><g/></g></g><g fill="#12172b" fill-opacity="1"><g transform="translate(216.24579, 192.709796)"><g><path d="M 7.515625 0.109375 C 6.265625 0.109375 5.140625 -0.164062 4.140625 -0.71875 C 3.140625 -1.269531 2.351562 -2.035156 1.78125 -3.015625 C 1.21875 -3.992188 0.9375 -5.085938 0.9375 -6.296875 C 0.9375 -7.503906 1.21875 -8.597656 1.78125 -9.578125 C 2.351562 -10.554688 3.144531 -11.320312 4.15625 -11.875 C 5.164062 -12.425781 6.289062 -12.703125 7.53125 -12.703125 C 8.46875 -12.703125 9.332031 -12.546875 10.125 -12.234375 C 10.914062 -11.921875 11.585938 -11.460938 12.140625 -10.859375 L 11.296875 -10.015625 C 10.304688 -11.015625 9.066406 -11.515625 7.578125 -11.515625 C 6.578125 -11.515625 5.671875 -11.285156 4.859375 -10.828125 C 4.046875 -10.367188 3.40625 -9.742188 2.9375 -8.953125 C 2.476562 -8.160156 2.25 -7.273438 2.25 -6.296875 C 2.25 -5.304688 2.476562 -4.414062 2.9375 -3.625 C 3.40625 -2.84375 4.046875 -2.222656 4.859375 -1.765625 C 5.671875 -1.304688 6.578125 -1.078125 7.578125 -1.078125 C 9.085938 -1.078125 10.328125 -1.582031 11.296875 -2.59375 L 12.140625 -1.75 C 11.585938 -1.144531 10.910156 -0.679688 10.109375 -0.359375 C 9.316406 -0.046875 8.453125 0.109375 7.515625 0.109375 Z M 7.515625 0.109375 "/></g></g></g><g fill="#12172b" fill-opacity="1"><g transform="translate(232.460547, 192.709796)"><g><path d="M 7.125 0.109375 C 5.488281 0.109375 4.210938 -0.359375 3.296875 -1.296875 C 2.390625 -2.234375 1.9375 -3.59375 1.9375 -5.375 L 1.9375 -12.59375 L 3.265625 -12.59375 L 3.265625 -5.4375 C 3.265625 -3.96875 3.59375 -2.875 4.25 -2.15625 C 4.914062 -1.4375 5.875 -1.078125 7.125 -1.078125 C 8.382812 -1.078125 9.34375 -1.4375 10 -2.15625 C 10.65625 -2.875 10.984375 -3.96875 10.984375 -5.4375 L 10.984375 -12.59375 L 12.28125 -12.59375 L 12.28125 -5.375 C 12.28125 -3.59375 11.828125 -2.234375 10.921875 -1.296875 C 10.015625 -0.359375 8.75 0.109375 7.125 0.109375 Z M 7.125 0.109375 "/></g></g></g><g fill="#12172b" fill-opacity="1"><g transform="translate(249.987526, 192.709796)"><g><path d="M 9.984375 -6.5 C 10.804688 -6.3125 11.441406 -5.953125 11.890625 -5.421875 C 12.347656 -4.890625 12.578125 -4.203125 12.578125 -3.359375 C 12.578125 -2.285156 12.175781 -1.457031 11.375 -0.875 C 10.570312 -0.289062 9.394531 0 7.84375 0 L 2.046875 0 L 2.046875 -12.59375 L 7.484375 -12.59375 C 8.878906 -12.59375 9.960938 -12.3125 10.734375 -11.75 C 11.515625 -11.1875 11.90625 -10.390625 11.90625 -9.359375 C 11.90625 -8.660156 11.734375 -8.066406 11.390625 -7.578125 C 11.046875 -7.097656 10.578125 -6.738281 9.984375 -6.5 Z M 3.375 -11.484375 L 3.375 -6.921875 L 7.390625 -6.921875 C 8.410156 -6.921875 9.195312 -7.113281 9.75 -7.5 C 10.300781 -7.894531 10.578125 -8.460938 10.578125 -9.203125 C 10.578125 -9.953125 10.300781 -10.519531 9.75 -10.90625 C 9.195312 -11.289062 8.410156 -11.484375 7.390625 -11.484375 Z M 7.828125 -1.09375 C 8.953125 -1.09375 9.800781 -1.285156 10.375 -1.671875 C 10.945312 -2.054688 11.234375 -2.65625 11.234375 -3.46875 C 11.234375 -5.039062 10.097656 -5.828125 7.828125 -5.828125 L 3.375 -5.828125 L 3.375 -1.09375 Z M 7.828125 -1.09375 "/></g></g></g><g fill="#12172b" fill-opacity="1"><g transform="translate(266.831441, 192.709796)"><g><path d="M 2.046875 -12.59375 L 3.375 -12.59375 L 3.375 0 L 2.046875 0 Z M 2.046875 -12.59375 "/></g></g></g><g fill="#12172b" fill-opacity="1"><g transform="translate(275.550334, 192.709796)"><g><path d="M 10.953125 -1.15625 L 10.953125 0 L 2.046875 0 L 2.046875 -12.59375 L 10.6875 -12.59375 L 10.6875 -11.4375 L 3.375 -11.4375 L 3.375 -6.953125 L 9.890625 -6.953125 L 9.890625 -5.828125 L 3.375 -5.828125 L 3.375 -1.15625 Z M 10.953125 -1.15625 "/></g></g></g><g fill="#12172b" fill-opacity="1"><g transform="translate(290.866304, 192.709796)"><g><path d="M 10.640625 0 L 7.765625 -4.046875 C 7.441406 -4.015625 7.109375 -4 6.765625 -4 L 3.375 -4 L 3.375 0 L 2.046875 0 L 2.046875 -12.59375 L 6.765625 -12.59375 C 8.367188 -12.59375 9.625 -12.207031 10.53125 -11.4375 C 11.445312 -10.664062 11.90625 -9.609375 11.90625 -8.265625 C 11.90625 -7.285156 11.65625 -6.457031 11.15625 -5.78125 C 10.65625 -5.101562 9.945312 -4.613281 9.03125 -4.3125 L 12.109375 0 Z M 6.71875 -5.125 C 7.96875 -5.125 8.921875 -5.398438 9.578125 -5.953125 C 10.242188 -6.503906 10.578125 -7.273438 10.578125 -8.265625 C 10.578125 -9.285156 10.242188 -10.066406 9.578125 -10.609375 C 8.921875 -11.160156 7.96875 -11.4375 6.71875 -11.4375 L 3.375 -11.4375 L 3.375 -5.125 Z M 6.71875 -5.125 "/></g></g></g><g fill="#12172b" fill-opacity="1"><g transform="translate(307.152963, 192.709796)"><g><path d="M 4.5 -11.4375 L 0.078125 -11.4375 L 0.078125 -12.59375 L 10.25 -12.59375 L 10.25 -11.4375 L 5.828125 -11.4375 L 5.828125 0 L 4.5 0 Z M 4.5 -11.4375 "/></g></g></g><g fill="#12172b" fill-opacity="1"><g transform="translate(320.761253, 192.709796)"><g><path d="M 9.953125 -3.359375 L 2.9375 -3.359375 L 1.421875 0 L 0.03125 0 L 5.796875 -12.59375 L 7.109375 -12.59375 L 12.859375 0 L 11.453125 0 Z M 9.453125 -4.4375 L 6.4375 -11.203125 L 3.421875 -4.4375 Z M 9.453125 -4.4375 "/></g></g></g><g fill="#12172b" fill-opacity="1"><g transform="translate(336.94006, 192.709796)"><g><path d="M 5.515625 0.109375 C 4.585938 0.109375 3.691406 -0.0390625 2.828125 -0.34375 C 1.972656 -0.644531 1.3125 -1.039062 0.84375 -1.53125 L 1.359375 -2.546875 C 1.816406 -2.097656 2.421875 -1.734375 3.171875 -1.453125 C 3.929688 -1.171875 4.710938 -1.03125 5.515625 -1.03125 C 6.648438 -1.03125 7.5 -1.234375 8.0625 -1.640625 C 8.625 -2.054688 8.90625 -2.59375 8.90625 -3.25 C 8.90625 -3.757812 8.75 -4.160156 8.4375 -4.453125 C 8.132812 -4.753906 7.757812 -4.984375 7.3125 -5.140625 C 6.875 -5.304688 6.257812 -5.488281 5.46875 -5.6875 C 4.519531 -5.925781 3.765625 -6.15625 3.203125 -6.375 C 2.640625 -6.59375 2.15625 -6.929688 1.75 -7.390625 C 1.351562 -7.847656 1.15625 -8.46875 1.15625 -9.25 C 1.15625 -9.882812 1.320312 -10.460938 1.65625 -10.984375 C 1.988281 -11.503906 2.503906 -11.921875 3.203125 -12.234375 C 3.898438 -12.546875 4.765625 -12.703125 5.796875 -12.703125 C 6.515625 -12.703125 7.21875 -12.601562 7.90625 -12.40625 C 8.59375 -12.207031 9.1875 -11.929688 9.6875 -11.578125 L 9.25 -10.515625 C 8.71875 -10.867188 8.148438 -11.128906 7.546875 -11.296875 C 6.953125 -11.472656 6.367188 -11.5625 5.796875 -11.5625 C 4.691406 -11.5625 3.859375 -11.347656 3.296875 -10.921875 C 2.742188 -10.492188 2.46875 -9.945312 2.46875 -9.28125 C 2.46875 -8.78125 2.617188 -8.375 2.921875 -8.0625 C 3.222656 -7.757812 3.601562 -7.523438 4.0625 -7.359375 C 4.53125 -7.203125 5.15625 -7.023438 5.9375 -6.828125 C 6.851562 -6.609375 7.597656 -6.382812 8.171875 -6.15625 C 8.742188 -5.9375 9.226562 -5.601562 9.625 -5.15625 C 10.019531 -4.707031 10.21875 -4.097656 10.21875 -3.328125 C 10.21875 -2.691406 10.046875 -2.113281 9.703125 -1.59375 C 9.359375 -1.070312 8.832031 -0.65625 8.125 -0.34375 C 7.414062 -0.0390625 6.546875 0.109375 5.515625 0.109375 Z M 5.515625 0.109375 "/></g></g></g><g fill="#12172b" fill-opacity="1"><g transform="translate(63.682766, 217.733383)"><g><path d="M 2.046875 -12.59375 L 3.375 -12.59375 L 3.375 0 L 2.046875 0 Z M 2.046875 -12.59375 "/></g></g></g><g fill="#12172b" fill-opacity="1"><g transform="translate(72.401665, 217.733383)"><g><path d="M 12.578125 -12.59375 L 12.578125 0 L 11.46875 0 L 3.375 -10.21875 L 3.375 0 L 2.046875 0 L 2.046875 -12.59375 L 3.140625 -12.59375 L 11.265625 -2.375 L 11.265625 -12.59375 Z M 12.578125 -12.59375 "/></g></g></g><g fill="#12172b" fill-opacity="1"><g transform="translate(90.306131, 217.733383)"><g><path d="M 5.515625 0.109375 C 4.585938 0.109375 3.691406 -0.0390625 2.828125 -0.34375 C 1.972656 -0.644531 1.3125 -1.039062 0.84375 -1.53125 L 1.359375 -2.546875 C 1.816406 -2.097656 2.421875 -1.734375 3.171875 -1.453125 C 3.929688 -1.171875 4.710938 -1.03125 5.515625 -1.03125 C 6.648438 -1.03125 7.5 -1.234375 8.0625 -1.640625 C 8.625 -2.054688 8.90625 -2.59375 8.90625 -3.25 C 8.90625 -3.757812 8.75 -4.160156 8.4375 -4.453125 C 8.132812 -4.753906 7.757812 -4.984375 7.3125 -5.140625 C 6.875 -5.304688 6.257812 -5.488281 5.46875 -5.6875 C 4.519531 -5.925781 3.765625 -6.15625 3.203125 -6.375 C 2.640625 -6.59375 2.15625 -6.929688 1.75 -7.390625 C 1.351562 -7.847656 1.15625 -8.46875 1.15625 -9.25 C 1.15625 -9.882812 1.320312 -10.460938 1.65625 -10.984375 C 1.988281 -11.503906 2.503906 -11.921875 3.203125 -12.234375 C 3.898438 -12.546875 4.765625 -12.703125 5.796875 -12.703125 C 6.515625 -12.703125 7.21875 -12.601562 7.90625 -12.40625 C 8.59375 -12.207031 9.1875 -11.929688 9.6875 -11.578125 L 9.25 -10.515625 C 8.71875 -10.867188 8.148438 -11.128906 7.546875 -11.296875 C 6.953125 -11.472656 6.367188 -11.5625 5.796875 -11.5625 C 4.691406 -11.5625 3.859375 -11.347656 3.296875 -10.921875 C 2.742188 -10.492188 2.46875 -9.945312 2.46875 -9.28125 C 2.46875 -8.78125 2.617188 -8.375 2.921875 -8.0625 C 3.222656 -7.757812 3.601562 -7.523438 4.0625 -7.359375 C 4.53125 -7.203125 5.15625 -7.023438 5.9375 -6.828125 C 6.851562 -6.609375 7.597656 -6.382812 8.171875 -6.15625 C 8.742188 -5.9375 9.226562 -5.601562 9.625 -5.15625 C 10.019531 -4.707031 10.21875 -4.097656 10.21875 -3.328125 C 10.21875 -2.691406 10.046875 -2.113281 9.703125 -1.59375 C 9.359375 -1.070312 8.832031 -0.65625 8.125 -0.34375 C 7.414062 -0.0390625 6.546875 0.109375 5.515625 0.109375 Z M 5.515625 0.109375 "/></g></g></g><g fill="#12172b" fill-opacity="1"><g transform="translate(104.651416, 217.733383)"><g><path d="M 2.046875 -12.59375 L 7.171875 -12.59375 C 8.503906 -12.59375 9.679688 -12.320312 10.703125 -11.78125 C 11.722656 -11.25 12.515625 -10.503906 13.078125 -9.546875 C 13.640625 -8.597656 13.921875 -7.515625 13.921875 -6.296875 C 13.921875 -5.066406 13.640625 -3.972656 13.078125 -3.015625 C 12.515625 -2.066406 11.722656 -1.328125 10.703125 -0.796875 C 9.679688 -0.265625 8.503906 0 7.171875 0 L 2.046875 0 Z M 7.109375 -1.15625 C 8.210938 -1.15625 9.175781 -1.375 10 -1.8125 C 10.820312 -2.25 11.460938 -2.851562 11.921875 -3.625 C 12.378906 -4.394531 12.609375 -5.285156 12.609375 -6.296875 C 12.609375 -7.304688 12.378906 -8.195312 11.921875 -8.96875 C 11.460938 -9.738281 10.820312 -10.34375 10 -10.78125 C 9.175781 -11.21875 8.210938 -11.4375 7.109375 -11.4375 L 3.375 -11.4375 L 3.375 -1.15625 Z M 7.109375 -1.15625 "/></g></g></g><g fill="#12172b" fill-opacity="1"><g transform="translate(122.789572, 217.733383)"><g><path d="M 7.125 0.109375 C 5.488281 0.109375 4.210938 -0.359375 3.296875 -1.296875 C 2.390625 -2.234375 1.9375 -3.59375 1.9375 -5.375 L 1.9375 -12.59375 L 3.265625 -12.59375 L 3.265625 -5.4375 C 3.265625 -3.96875 3.59375 -2.875 4.25 -2.15625 C 4.914062 -1.4375 5.875 -1.078125 7.125 -1.078125 C 8.382812 -1.078125 9.34375 -1.4375 10 -2.15625 C 10.65625 -2.875 10.984375 -3.96875 10.984375 -5.4375 L 10.984375 -12.59375 L 12.28125 -12.59375 L 12.28125 -5.375 C 12.28125 -3.59375 11.828125 -2.234375 10.921875 -1.296875 C 10.015625 -0.359375 8.75 0.109375 7.125 0.109375 Z M 7.125 0.109375 "/></g></g></g><g fill="#12172b" fill-opacity="1"><g transform="translate(140.316555, 217.733383)"><g><path d="M 5.515625 0.109375 C 4.585938 0.109375 3.691406 -0.0390625 2.828125 -0.34375 C 1.972656 -0.644531 1.3125 -1.039062 0.84375 -1.53125 L 1.359375 -2.546875 C 1.816406 -2.097656 2.421875 -1.734375 3.171875 -1.453125 C 3.929688 -1.171875 4.710938 -1.03125 5.515625 -1.03125 C 6.648438 -1.03125 7.5 -1.234375 8.0625 -1.640625 C 8.625 -2.054688 8.90625 -2.59375 8.90625 -3.25 C 8.90625 -3.757812 8.75 -4.160156 8.4375 -4.453125 C 8.132812 -4.753906 7.757812 -4.984375 7.3125 -5.140625 C 6.875 -5.304688 6.257812 -5.488281 5.46875 -5.6875 C 4.519531 -5.925781 3.765625 -6.15625 3.203125 -6.375 C 2.640625 -6.59375 2.15625 -6.929688 1.75 -7.390625 C 1.351562 -7.847656 1.15625 -8.46875 1.15625 -9.25 C 1.15625 -9.882812 1.320312 -10.460938 1.65625 -10.984375 C 1.988281 -11.503906 2.503906 -11.921875 3.203125 -12.234375 C 3.898438 -12.546875 4.765625 -12.703125 5.796875 -12.703125 C 6.515625 -12.703125 7.21875 -12.601562 7.90625 -12.40625 C 8.59375 -12.207031 9.1875 -11.929688 9.6875 -11.578125 L 9.25 -10.515625 C 8.71875 -10.867188 8.148438 -11.128906 7.546875 -11.296875 C 6.953125 -11.472656 6.367188 -11.5625 5.796875 -11.5625 C 4.691406 -11.5625 3.859375 -11.347656 3.296875 -10.921875 C 2.742188 -10.492188 2.46875 -9.945312 2.46875 -9.28125 C 2.46875 -8.78125 2.617188 -8.375 2.921875 -8.0625 C 3.222656 -7.757812 3.601562 -7.523438 4.0625 -7.359375 C 4.53125 -7.203125 5.15625 -7.023438 5.9375 -6.828125 C 6.851562 -6.609375 7.597656 -6.382812 8.171875 -6.15625 C 8.742188 -5.9375 9.226562 -5.601562 9.625 -5.15625 C 10.019531 -4.707031 10.21875 -4.097656 10.21875 -3.328125 C 10.21875 -2.691406 10.046875 -2.113281 9.703125 -1.59375 C 9.359375 -1.070312 8.832031 -0.65625 8.125 -0.34375 C 7.414062 -0.0390625 6.546875 0.109375 5.515625 0.109375 Z M 5.515625 0.109375 "/></g></g></g><g fill="#12172b" fill-opacity="1"><g transform="translate(154.66184, 217.733383)"><g><path d="M 4.5 -11.4375 L 0.078125 -11.4375 L 0.078125 -12.59375 L 10.25 -12.59375 L 10.25 -11.4375 L 5.828125 -11.4375 L 5.828125 0 L 4.5 0 Z M 4.5 -11.4375 "/></g></g></g><g fill="#12172b" fill-opacity="1"><g transform="translate(168.270131, 217.733383)"><g><path d="M 10.640625 0 L 7.765625 -4.046875 C 7.441406 -4.015625 7.109375 -4 6.765625 -4 L 3.375 -4 L 3.375 0 L 2.046875 0 L 2.046875 -12.59375 L 6.765625 -12.59375 C 8.367188 -12.59375 9.625 -12.207031 10.53125 -11.4375 C 11.445312 -10.664062 11.90625 -9.609375 11.90625 -8.265625 C 11.90625 -7.285156 11.65625 -6.457031 11.15625 -5.78125 C 10.65625 -5.101562 9.945312 -4.613281 9.03125 -4.3125 L 12.109375 0 Z M 6.71875 -5.125 C 7.96875 -5.125 8.921875 -5.398438 9.578125 -5.953125 C 10.242188 -6.503906 10.578125 -7.273438 10.578125 -8.265625 C 10.578125 -9.285156 10.242188 -10.066406 9.578125 -10.609375 C 8.921875 -11.160156 7.96875 -11.4375 6.71875 -11.4375 L 3.375 -11.4375 L 3.375 -5.125 Z M 6.71875 -5.125 "/></g></g></g><g fill="#12172b" fill-opacity="1"><g transform="translate(184.55679, 217.733383)"><g><path d="M 2.046875 -12.59375 L 3.375 -12.59375 L 3.375 0 L 2.046875 0 Z M 2.046875 -12.59375 "/></g></g></g><g fill="#12172b" fill-opacity="1"><g transform="translate(193.275683, 217.733383)"><g><path d="M 9.953125 -3.359375 L 2.9375 -3.359375 L 1.421875 0 L 0.03125 0 L 5.796875 -12.59375 L 7.109375 -12.59375 L 12.859375 0 L 11.453125 0 Z M 9.453125 -4.4375 L 6.4375 -11.203125 L 3.421875 -4.4375 Z M 9.453125 -4.4375 "/></g></g></g><g fill="#12172b" fill-opacity="1"><g transform="translate(209.45449, 217.733383)"><g><path d="M 2.046875 -12.59375 L 3.375 -12.59375 L 3.375 -1.15625 L 10.4375 -1.15625 L 10.4375 0 L 2.046875 0 Z M 2.046875 -12.59375 "/></g></g></g><g fill="#12172b" fill-opacity="1"><g transform="translate(223.33241, 217.733383)"><g><path d="M 10.953125 -1.15625 L 10.953125 0 L 2.046875 0 L 2.046875 -12.59375 L 10.6875 -12.59375 L 10.6875 -11.4375 L 3.375 -11.4375 L 3.375 -6.953125 L 9.890625 -6.953125 L 9.890625 -5.828125 L 3.375 -5.828125 L 3.375 -1.15625 Z M 10.953125 -1.15625 "/></g></g></g><g fill="#12172b" fill-opacity="1"><g transform="translate(238.64838, 217.733383)"><g><path d="M 5.515625 0.109375 C 4.585938 0.109375 3.691406 -0.0390625 2.828125 -0.34375 C 1.972656 -0.644531 1.3125 -1.039062 0.84375 -1.53125 L 1.359375 -2.546875 C 1.816406 -2.097656 2.421875 -1.734375 3.171875 -1.453125 C 3.929688 -1.171875 4.710938 -1.03125 5.515625 -1.03125 C 6.648438 -1.03125 7.5 -1.234375 8.0625 -1.640625 C 8.625 -2.054688 8.90625 -2.59375 8.90625 -3.25 C 8.90625 -3.757812 8.75 -4.160156 8.4375 -4.453125 C 8.132812 -4.753906 7.757812 -4.984375 7.3125 -5.140625 C 6.875 -5.304688 6.257812 -5.488281 5.46875 -5.6875 C 4.519531 -5.925781 3.765625 -6.15625 3.203125 -6.375 C 2.640625 -6.59375 2.15625 -6.929688 1.75 -7.390625 C 1.351562 -7.847656 1.15625 -8.46875 1.15625 -9.25 C 1.15625 -9.882812 1.320312 -10.460938 1.65625 -10.984375 C 1.988281 -11.503906 2.503906 -11.921875 3.203125 -12.234375 C 3.898438 -12.546875 4.765625 -12.703125 5.796875 -12.703125 C 6.515625 -12.703125 7.21875 -12.601562 7.90625 -12.40625 C 8.59375 -12.207031 9.1875 -11.929688 9.6875 -11.578125 L 9.25 -10.515625 C 8.71875 -10.867188 8.148438 -11.128906 7.546875 -11.296875 C 6.953125 -11.472656 6.367188 -11.5625 5.796875 -11.5625 C 4.691406 -11.5625 3.859375 -11.347656 3.296875 -10.921875 C 2.742188 -10.492188 2.46875 -9.945312 2.46875 -9.28125 C 2.46875 -8.78125 2.617188 -8.375 2.921875 -8.0625 C 3.222656 -7.757812 3.601562 -7.523438 4.0625 -7.359375 C 4.53125 -7.203125 5.15625 -7.023438 5.9375 -6.828125 C 6.851562 -6.609375 7.597656 -6.382812 8.171875 -6.15625 C 8.742188 -5.9375 9.226562 -5.601562 9.625 -5.15625 C 10.019531 -4.707031 10.21875 -4.097656 10.21875 -3.328125 C 10.21875 -2.691406 10.046875 -2.113281 9.703125 -1.59375 C 9.359375 -1.070312 8.832031 -0.65625 8.125 -0.34375 C 7.414062 -0.0390625 6.546875 0.109375 5.515625 0.109375 Z M 5.515625 0.109375 "/></g></g></g><g fill="#12172b" fill-opacity="1"><g transform="translate(252.99366, 217.733383)"><g/></g></g><g fill="#12172b" fill-opacity="1"><g transform="translate(260.993539, 217.733383)"><g><path d="M 15.125 -12.59375 L 15.125 0 L 13.84375 0 L 13.84375 -10.078125 L 8.90625 -1.59375 L 8.265625 -1.59375 L 3.328125 -10.015625 L 3.328125 0 L 2.046875 0 L 2.046875 -12.59375 L 3.140625 -12.59375 L 8.609375 -3.25 L 14.03125 -12.59375 Z M 15.125 -12.59375 "/></g></g></g><g fill="#12172b" fill-opacity="1"><g transform="translate(281.450561, 217.733383)"><g><path d="M 15.125 -12.59375 L 15.125 0 L 13.84375 0 L 13.84375 -10.078125 L 8.90625 -1.59375 L 8.265625 -1.59375 L 3.328125 -10.015625 L 3.328125 0 L 2.046875 0 L 2.046875 -12.59375 L 3.140625 -12.59375 L 8.609375 -3.25 L 14.03125 -12.59375 Z M 15.125 -12.59375 "/></g></g></g></svg>