<svg xmlns="http://www.w3.org/2000/svg" xmlns:xlink="http://www.w3.org/1999/xlink" width="500" zoomAndPan="magnify" viewBox="0 0 375 225" height="300" preserveAspectRatio="xMidYMid meet" version="1.0"><defs><g/><clipPath id="dded58dd80"><path d="M 193.28125 0 L 375 0 L 375 154.890625 L 193.28125 154.890625 Z M 193.28125 0 " clip-rule="nonzero"/></clipPath></defs><g clip-path="url(#dded58dd80)"><path fill="#4958db" d="M 373.421875 121.488281 C 358.785156 94.320312 341.773438 47.960938 339.777344 42.476562 C 337.808594 20.441406 326.464844 9.460938 325.980469 9 L 322.019531 5.246094 L 319.234375 9.941406 C 313.839844 19.046875 311.441406 26.386719 310.382812 31.140625 C 305.730469 29.613281 300.886719 28.726562 295.890625 28.472656 C 278.957031 24.699219 251.289062 16.363281 235.738281 0.0703125 C 235.738281 0.0703125 242.671875 17.101562 263.804688 25.828125 C 253.976562 22.679688 231.933594 17.445312 210.730469 25.078125 C 210.730469 25.078125 244.453125 21.667969 258.660156 33.035156 C 258.660156 33.035156 240.285156 36.824219 226.265625 33.035156 C 226.265625 33.035156 234.980469 38.339844 244.453125 37.582031 C 244.453125 37.582031 217.929688 52.738281 193.300781 55.390625 C 193.300781 55.390625 212.421875 58.296875 229.296875 51.601562 C 232.6875 50.257812 240.308594 47 245.414062 44.804688 C 236.222656 50.921875 230.476562 56.464844 230.152344 56.777344 L 227.027344 59.816406 C 227.027344 59.816406 276.011719 24.925781 312.105469 41.144531 L 318.246094 43.941406 L 318.246094 37.207031 C 318.25 37.128906 318.429688 30.652344 323.640625 20.074219 C 326.53125 24.617188 330.226562 32.460938 331.144531 43.773438 L 331.191406 44.351562 L 331.386719 44.898438 C 332.132812 46.96875 349.734375 95.699219 365.46875 125.097656 C 364.90625 126.007812 362.828125 127.882812 359.261719 128.960938 C 357.140625 129.601562 351.730469 130.695312 347.386719 127.039062 C 344.792969 124.855469 341.359375 122.746094 337.386719 120.304688 C 324.039062 112.101562 307.433594 101.894531 310.796875 82.234375 L 313.507812 66.390625 L 303.167969 78.695312 C 302.898438 79.011719 296.5625 86.632812 292.1875 99.003906 C 286.382812 115.425781 286.796875 132.546875 293.382812 148.515625 C 294.191406 150.472656 295.15625 152.589844 296.183594 154.835938 C 296.183594 154.835938 288.917969 111.949219 302.753906 96.140625 C 306.957031 111.828125 322.03125 121.09375 332.824219 127.730469 C 336.5 129.988281 339.675781 131.941406 341.773438 133.707031 C 351.019531 141.492188 363.644531 138.113281 369.660156 133.226562 C 374.832031 129.019531 374.992188 124.40625 373.421875 121.488281 " fill-opacity="1" fill-rule="nonzero"/></g><g fill="#4958db" fill-opacity="1"><g transform="translate(172.627844, 152.60147)"><g><path d="M 70.734375 -1.359375 L 36.5 -89.4375 C 36.15625 -90.34375 34.578125 -90.34375 34.25 -89.4375 L 0.109375 -1.359375 C -0.21875 -0.671875 0.21875 0 1.234375 0 L 16.671875 0 C 17.125 0 17.6875 -0.21875 17.796875 -0.671875 L 35.375 -50.90625 L 53.171875 -0.671875 C 53.28125 -0.21875 53.84375 0 54.1875 0 L 69.71875 0 C 70.515625 0 71.078125 -0.671875 70.734375 -1.359375 Z M 70.734375 -1.359375 "/></g></g></g><g fill="#65e7de" fill-opacity="1"><g transform="translate(119.696772, 152.60147)"><g><path d="M 70.734375 -1.359375 L 36.5 -89.4375 C 36.15625 -90.34375 34.578125 -90.34375 34.25 -89.4375 L 0.109375 -1.359375 C -0.21875 -0.671875 0.21875 0 1.234375 0 L 16.671875 0 C 17.125 0 17.6875 -0.21875 17.796875 -0.671875 L 35.375 -50.90625 L 53.171875 -0.671875 C 53.28125 -0.21875 53.84375 0 54.1875 0 L 69.71875 0 C 70.515625 0 71.078125 -0.671875 70.734375 -1.359375 Z M 70.734375 -1.359375 "/></g></g></g><g fill="#4958db" fill-opacity="1"><g transform="translate(225.871001, 152.60147)"><g><path d="M 70.734375 -1.359375 L 36.5 -89.4375 C 36.15625 -90.34375 34.578125 -90.34375 34.25 -89.4375 L 0.109375 -1.359375 C -0.21875 -0.671875 0.21875 0 1.234375 0 L 16.671875 0 C 17.125 0 17.6875 -0.21875 17.796875 -0.671875 L 35.375 -50.90625 L 53.171875 -0.671875 C 53.28125 -0.21875 53.84375 0 54.1875 0 L 69.71875 0 C 70.515625 0 71.078125 -0.671875 70.734375 -1.359375 Z M 70.734375 -1.359375 "/></g></g></g><g fill="#65e7de" fill-opacity="1"><g transform="translate(66.886975, 152.60147)"><g><path d="M 70.734375 -1.359375 L 36.5 -89.4375 C 36.15625 -90.34375 34.578125 -90.34375 34.25 -89.4375 L 0.109375 -1.359375 C -0.21875 -0.671875 0.21875 0 1.234375 0 L 16.671875 0 C 17.125 0 17.6875 -0.21875 17.796875 -0.671875 L 35.375 -50.90625 L 53.171875 -0.671875 C 53.28125 -0.21875 53.84375 0 54.1875 0 L 69.71875 0 C 70.515625 0 71.078125 -0.671875 70.734375 -1.359375 Z M 70.734375 -1.359375 "/></g></g></g><g fill="#ffffff" fill-opacity="1"><g transform="translate(14.411205, 192.860201)"><g><path d="M 10.9375 -1.15625 L 10.9375 0 L 2.046875 0 L 2.046875 -12.578125 L 10.671875 -12.578125 L 10.671875 -11.421875 L 3.375 -11.421875 L 3.375 -6.953125 L 9.875 -6.953125 L 9.875 -5.828125 L 3.375 -5.828125 L 3.375 -1.15625 Z M 10.9375 -1.15625 "/></g></g></g><g fill="#ffffff" fill-opacity="1"><g transform="translate(29.716843, 192.860201)"><g><path d="M 5.515625 0.109375 C 4.578125 0.109375 3.679688 -0.0390625 2.828125 -0.34375 C 1.972656 -0.644531 1.3125 -1.039062 0.84375 -1.53125 L 1.359375 -2.546875 C 1.816406 -2.097656 2.421875 -1.734375 3.171875 -1.453125 C 3.929688 -1.171875 4.710938 -1.03125 5.515625 -1.03125 C 6.640625 -1.03125 7.484375 -1.234375 8.046875 -1.640625 C 8.609375 -2.054688 8.890625 -2.59375 8.890625 -3.25 C 8.890625 -3.75 8.738281 -4.148438 8.4375 -4.453125 C 8.132812 -4.753906 7.757812 -4.984375 7.3125 -5.140625 C 6.863281 -5.304688 6.25 -5.484375 5.46875 -5.671875 C 4.519531 -5.910156 3.765625 -6.140625 3.203125 -6.359375 C 2.640625 -6.585938 2.15625 -6.925781 1.75 -7.375 C 1.351562 -7.832031 1.15625 -8.453125 1.15625 -9.234375 C 1.15625 -9.867188 1.320312 -10.445312 1.65625 -10.96875 C 1.988281 -11.488281 2.5 -11.90625 3.1875 -12.21875 C 3.882812 -12.53125 4.75 -12.6875 5.78125 -12.6875 C 6.5 -12.6875 7.203125 -12.585938 7.890625 -12.390625 C 8.585938 -12.191406 9.1875 -11.921875 9.6875 -11.578125 L 9.234375 -10.515625 C 8.703125 -10.859375 8.132812 -11.113281 7.53125 -11.28125 C 6.9375 -11.457031 6.351562 -11.546875 5.78125 -11.546875 C 4.675781 -11.546875 3.847656 -11.332031 3.296875 -10.90625 C 2.742188 -10.488281 2.46875 -9.941406 2.46875 -9.265625 C 2.46875 -8.765625 2.617188 -8.359375 2.921875 -8.046875 C 3.222656 -7.742188 3.601562 -7.507812 4.0625 -7.34375 C 4.53125 -7.1875 5.148438 -7.015625 5.921875 -6.828125 C 6.847656 -6.597656 7.59375 -6.375 8.15625 -6.15625 C 8.726562 -5.9375 9.210938 -5.597656 9.609375 -5.140625 C 10.003906 -4.691406 10.203125 -4.085938 10.203125 -3.328125 C 10.203125 -2.691406 10.03125 -2.113281 9.6875 -1.59375 C 9.351562 -1.070312 8.832031 -0.65625 8.125 -0.34375 C 7.414062 -0.0390625 6.546875 0.109375 5.515625 0.109375 Z M 5.515625 0.109375 "/></g></g></g><g fill="#ffffff" fill-opacity="1"><g transform="translate(44.052636, 192.860201)"><g><path d="M 4.484375 -11.421875 L 0.078125 -11.421875 L 0.078125 -12.578125 L 10.234375 -12.578125 L 10.234375 -11.421875 L 5.828125 -11.421875 L 5.828125 0 L 4.484375 0 Z M 4.484375 -11.421875 "/></g></g></g><g fill="#ffffff" fill-opacity="1"><g transform="translate(57.652056, 192.860201)"><g><path d="M 10.640625 0 L 7.765625 -4.046875 C 7.441406 -4.003906 7.101562 -3.984375 6.75 -3.984375 L 3.375 -3.984375 L 3.375 0 L 2.046875 0 L 2.046875 -12.578125 L 6.75 -12.578125 C 8.351562 -12.578125 9.609375 -12.191406 10.515625 -11.421875 C 11.429688 -10.660156 11.890625 -9.609375 11.890625 -8.265625 C 11.890625 -7.285156 11.640625 -6.457031 11.140625 -5.78125 C 10.648438 -5.101562 9.941406 -4.613281 9.015625 -4.3125 L 12.09375 0 Z M 6.71875 -5.125 C 7.96875 -5.125 8.921875 -5.398438 9.578125 -5.953125 C 10.234375 -6.503906 10.5625 -7.273438 10.5625 -8.265625 C 10.5625 -9.285156 10.234375 -10.066406 9.578125 -10.609375 C 8.921875 -11.148438 7.96875 -11.421875 6.71875 -11.421875 L 3.375 -11.421875 L 3.375 -5.125 Z M 6.71875 -5.125 "/></g></g></g><g fill="#ffffff" fill-opacity="1"><g transform="translate(73.927551, 192.860201)"><g><path d="M 7.109375 0.109375 C 5.484375 0.109375 4.210938 -0.351562 3.296875 -1.28125 C 2.390625 -2.21875 1.9375 -3.582031 1.9375 -5.375 L 1.9375 -12.578125 L 3.265625 -12.578125 L 3.265625 -5.421875 C 3.265625 -3.960938 3.59375 -2.875 4.25 -2.15625 C 4.914062 -1.4375 5.867188 -1.078125 7.109375 -1.078125 C 8.367188 -1.078125 9.328125 -1.4375 9.984375 -2.15625 C 10.648438 -2.875 10.984375 -3.960938 10.984375 -5.421875 L 10.984375 -12.578125 L 12.265625 -12.578125 L 12.265625 -5.375 C 12.265625 -3.582031 11.8125 -2.21875 10.90625 -1.28125 C 10.007812 -0.351562 8.742188 0.109375 7.109375 0.109375 Z M 7.109375 0.109375 "/></g></g></g><g fill="#ffffff" fill-opacity="1"><g transform="translate(91.442298, 192.860201)"><g><path d="M 7.515625 0.109375 C 6.265625 0.109375 5.140625 -0.164062 4.140625 -0.71875 C 3.140625 -1.269531 2.351562 -2.03125 1.78125 -3 C 1.21875 -3.976562 0.9375 -5.070312 0.9375 -6.28125 C 0.9375 -7.5 1.21875 -8.59375 1.78125 -9.5625 C 2.351562 -10.539062 3.140625 -11.304688 4.140625 -11.859375 C 5.148438 -12.410156 6.28125 -12.6875 7.53125 -12.6875 C 8.46875 -12.6875 9.328125 -12.53125 10.109375 -12.21875 C 10.898438 -11.90625 11.570312 -11.453125 12.125 -10.859375 L 11.28125 -10.015625 C 10.300781 -11.003906 9.0625 -11.5 7.5625 -11.5 C 6.570312 -11.5 5.664062 -11.269531 4.84375 -10.8125 C 4.03125 -10.363281 3.394531 -9.742188 2.9375 -8.953125 C 2.476562 -8.160156 2.25 -7.269531 2.25 -6.28125 C 2.25 -5.300781 2.476562 -4.414062 2.9375 -3.625 C 3.394531 -2.832031 4.03125 -2.207031 4.84375 -1.75 C 5.664062 -1.300781 6.570312 -1.078125 7.5625 -1.078125 C 9.070312 -1.078125 10.3125 -1.582031 11.28125 -2.59375 L 12.125 -1.75 C 11.570312 -1.144531 10.894531 -0.679688 10.09375 -0.359375 C 9.300781 -0.046875 8.441406 0.109375 7.515625 0.109375 Z M 7.515625 0.109375 "/></g></g></g><g fill="#ffffff" fill-opacity="1"><g transform="translate(107.64595, 192.860201)"><g><path d="M 4.484375 -11.421875 L 0.078125 -11.421875 L 0.078125 -12.578125 L 10.234375 -12.578125 L 10.234375 -11.421875 L 5.828125 -11.421875 L 5.828125 0 L 4.484375 0 Z M 4.484375 -11.421875 "/></g></g></g><g fill="#ffffff" fill-opacity="1"><g transform="translate(121.245366, 192.860201)"><g><path d="M 7.109375 0.109375 C 5.484375 0.109375 4.210938 -0.351562 3.296875 -1.28125 C 2.390625 -2.21875 1.9375 -3.582031 1.9375 -5.375 L 1.9375 -12.578125 L 3.265625 -12.578125 L 3.265625 -5.421875 C 3.265625 -3.960938 3.59375 -2.875 4.25 -2.15625 C 4.914062 -1.4375 5.867188 -1.078125 7.109375 -1.078125 C 8.367188 -1.078125 9.328125 -1.4375 9.984375 -2.15625 C 10.648438 -2.875 10.984375 -3.960938 10.984375 -5.421875 L 10.984375 -12.578125 L 12.265625 -12.578125 L 12.265625 -5.375 C 12.265625 -3.582031 11.8125 -2.21875 10.90625 -1.28125 C 10.007812 -0.351562 8.742188 0.109375 7.109375 0.109375 Z M 7.109375 0.109375 "/></g></g></g><g fill="#ffffff" fill-opacity="1"><g transform="translate(138.76012, 192.860201)"><g><path d="M 10.640625 0 L 7.765625 -4.046875 C 7.441406 -4.003906 7.101562 -3.984375 6.75 -3.984375 L 3.375 -3.984375 L 3.375 0 L 2.046875 0 L 2.046875 -12.578125 L 6.75 -12.578125 C 8.351562 -12.578125 9.609375 -12.191406 10.515625 -11.421875 C 11.429688 -10.660156 11.890625 -9.609375 11.890625 -8.265625 C 11.890625 -7.285156 11.640625 -6.457031 11.140625 -5.78125 C 10.648438 -5.101562 9.941406 -4.613281 9.015625 -4.3125 L 12.09375 0 Z M 6.71875 -5.125 C 7.96875 -5.125 8.921875 -5.398438 9.578125 -5.953125 C 10.234375 -6.503906 10.5625 -7.273438 10.5625 -8.265625 C 10.5625 -9.285156 10.234375 -10.066406 9.578125 -10.609375 C 8.921875 -11.148438 7.96875 -11.421875 6.71875 -11.421875 L 3.375 -11.421875 L 3.375 -5.125 Z M 6.71875 -5.125 "/></g></g></g><g fill="#ffffff" fill-opacity="1"><g transform="translate(155.035622, 192.860201)"><g><path d="M 9.9375 -3.359375 L 2.921875 -3.359375 L 1.421875 0 L 0.03125 0 L 5.78125 -12.578125 L 7.09375 -12.578125 L 12.84375 0 L 11.453125 0 Z M 9.453125 -4.4375 L 6.4375 -11.1875 L 3.40625 -4.4375 Z M 9.453125 -4.4375 "/></g></g></g><g fill="#ffffff" fill-opacity="1"><g transform="translate(171.203359, 192.860201)"><g><path d="M 5.515625 0.109375 C 4.578125 0.109375 3.679688 -0.0390625 2.828125 -0.34375 C 1.972656 -0.644531 1.3125 -1.039062 0.84375 -1.53125 L 1.359375 -2.546875 C 1.816406 -2.097656 2.421875 -1.734375 3.171875 -1.453125 C 3.929688 -1.171875 4.710938 -1.03125 5.515625 -1.03125 C 6.640625 -1.03125 7.484375 -1.234375 8.046875 -1.640625 C 8.609375 -2.054688 8.890625 -2.59375 8.890625 -3.25 C 8.890625 -3.75 8.738281 -4.148438 8.4375 -4.453125 C 8.132812 -4.753906 7.757812 -4.984375 7.3125 -5.140625 C 6.863281 -5.304688 6.25 -5.484375 5.46875 -5.671875 C 4.519531 -5.910156 3.765625 -6.140625 3.203125 -6.359375 C 2.640625 -6.585938 2.15625 -6.925781 1.75 -7.375 C 1.351562 -7.832031 1.15625 -8.453125 1.15625 -9.234375 C 1.15625 -9.867188 1.320312 -10.445312 1.65625 -10.96875 C 1.988281 -11.488281 2.5 -11.90625 3.1875 -12.21875 C 3.882812 -12.53125 4.75 -12.6875 5.78125 -12.6875 C 6.5 -12.6875 7.203125 -12.585938 7.890625 -12.390625 C 8.585938 -12.191406 9.1875 -11.921875 9.6875 -11.578125 L 9.234375 -10.515625 C 8.703125 -10.859375 8.132812 -11.113281 7.53125 -11.28125 C 6.9375 -11.457031 6.351562 -11.546875 5.78125 -11.546875 C 4.675781 -11.546875 3.847656 -11.332031 3.296875 -10.90625 C 2.742188 -10.488281 2.46875 -9.941406 2.46875 -9.265625 C 2.46875 -8.765625 2.617188 -8.359375 2.921875 -8.046875 C 3.222656 -7.742188 3.601562 -7.507812 4.0625 -7.34375 C 4.53125 -7.1875 5.148438 -7.015625 5.921875 -6.828125 C 6.847656 -6.597656 7.59375 -6.375 8.15625 -6.15625 C 8.726562 -5.9375 9.210938 -5.597656 9.609375 -5.140625 C 10.003906 -4.691406 10.203125 -4.085938 10.203125 -3.328125 C 10.203125 -2.691406 10.03125 -2.113281 9.6875 -1.59375 C 9.351562 -1.070312 8.832031 -0.65625 8.125 -0.34375 C 7.414062 -0.0390625 6.546875 0.109375 5.515625 0.109375 Z M 5.515625 0.109375 "/></g></g></g><g fill="#ffffff" fill-opacity="1"><g transform="translate(185.539157, 192.860201)"><g/></g></g><g fill="#ffffff" fill-opacity="1"><g transform="translate(193.534998, 192.860201)"><g><path d="M 6.359375 -4.34375 L 6.359375 0 L 5.046875 0 L 5.046875 -4.34375 L 0.015625 -12.578125 L 1.4375 -12.578125 L 5.75 -5.515625 L 10.0625 -12.578125 L 11.390625 -12.578125 Z M 6.359375 -4.34375 "/></g></g></g><g fill="#ffffff" fill-opacity="1"><g transform="translate(208.229999, 192.860201)"><g/></g></g><g fill="#ffffff" fill-opacity="1"><g transform="translate(216.225839, 192.860201)"><g><path d="M 7.515625 0.109375 C 6.265625 0.109375 5.140625 -0.164062 4.140625 -0.71875 C 3.140625 -1.269531 2.351562 -2.03125 1.78125 -3 C 1.21875 -3.976562 0.9375 -5.070312 0.9375 -6.28125 C 0.9375 -7.5 1.21875 -8.59375 1.78125 -9.5625 C 2.351562 -10.539062 3.140625 -11.304688 4.140625 -11.859375 C 5.148438 -12.410156 6.28125 -12.6875 7.53125 -12.6875 C 8.46875 -12.6875 9.328125 -12.53125 10.109375 -12.21875 C 10.898438 -11.90625 11.570312 -11.453125 12.125 -10.859375 L 11.28125 -10.015625 C 10.300781 -11.003906 9.0625 -11.5 7.5625 -11.5 C 6.570312 -11.5 5.664062 -11.269531 4.84375 -10.8125 C 4.03125 -10.363281 3.394531 -9.742188 2.9375 -8.953125 C 2.476562 -8.160156 2.25 -7.269531 2.25 -6.28125 C 2.25 -5.300781 2.476562 -4.414062 2.9375 -3.625 C 3.394531 -2.832031 4.03125 -2.207031 4.84375 -1.75 C 5.664062 -1.300781 6.570312 -1.078125 7.5625 -1.078125 C 9.070312 -1.078125 10.3125 -1.582031 11.28125 -2.59375 L 12.125 -1.75 C 11.570312 -1.144531 10.894531 -0.679688 10.09375 -0.359375 C 9.300781 -0.046875 8.441406 0.109375 7.515625 0.109375 Z M 7.515625 0.109375 "/></g></g></g><g fill="#ffffff" fill-opacity="1"><g transform="translate(232.429499, 192.860201)"><g><path d="M 7.109375 0.109375 C 5.484375 0.109375 4.210938 -0.351562 3.296875 -1.28125 C 2.390625 -2.21875 1.9375 -3.582031 1.9375 -5.375 L 1.9375 -12.578125 L 3.265625 -12.578125 L 3.265625 -5.421875 C 3.265625 -3.960938 3.59375 -2.875 4.25 -2.15625 C 4.914062 -1.4375 5.867188 -1.078125 7.109375 -1.078125 C 8.367188 -1.078125 9.328125 -1.4375 9.984375 -2.15625 C 10.648438 -2.875 10.984375 -3.960938 10.984375 -5.421875 L 10.984375 -12.578125 L 12.265625 -12.578125 L 12.265625 -5.375 C 12.265625 -3.582031 11.8125 -2.21875 10.90625 -1.28125 C 10.007812 -0.351562 8.742188 0.109375 7.109375 0.109375 Z M 7.109375 0.109375 "/></g></g></g><g fill="#ffffff" fill-opacity="1"><g transform="translate(249.944238, 192.860201)"><g><path d="M 9.96875 -6.484375 C 10.800781 -6.304688 11.441406 -5.953125 11.890625 -5.421875 C 12.335938 -4.890625 12.5625 -4.203125 12.5625 -3.359375 C 12.5625 -2.285156 12.160156 -1.457031 11.359375 -0.875 C 10.566406 -0.289062 9.390625 0 7.828125 0 L 2.046875 0 L 2.046875 -12.578125 L 7.46875 -12.578125 C 8.875 -12.578125 9.960938 -12.296875 10.734375 -11.734375 C 11.503906 -11.171875 11.890625 -10.375 11.890625 -9.34375 C 11.890625 -8.644531 11.71875 -8.050781 11.375 -7.5625 C 11.039062 -7.082031 10.570312 -6.722656 9.96875 -6.484375 Z M 3.375 -11.484375 L 3.375 -6.921875 L 7.390625 -6.921875 C 8.398438 -6.921875 9.179688 -7.113281 9.734375 -7.5 C 10.285156 -7.882812 10.5625 -8.453125 10.5625 -9.203125 C 10.5625 -9.941406 10.285156 -10.503906 9.734375 -10.890625 C 9.179688 -11.285156 8.398438 -11.484375 7.390625 -11.484375 Z M 7.8125 -1.09375 C 8.9375 -1.09375 9.785156 -1.285156 10.359375 -1.671875 C 10.941406 -2.054688 11.234375 -2.65625 11.234375 -3.46875 C 11.234375 -5.039062 10.09375 -5.828125 7.8125 -5.828125 L 3.375 -5.828125 L 3.375 -1.09375 Z M 7.8125 -1.09375 "/></g></g></g><g fill="#ffffff" fill-opacity="1"><g transform="translate(266.776507, 192.860201)"><g><path d="M 2.046875 -12.578125 L 3.375 -12.578125 L 3.375 0 L 2.046875 0 Z M 2.046875 -12.578125 "/></g></g></g><g fill="#ffffff" fill-opacity="1"><g transform="translate(275.490741, 192.860201)"><g><path d="M 10.9375 -1.15625 L 10.9375 0 L 2.046875 0 L 2.046875 -12.578125 L 10.671875 -12.578125 L 10.671875 -11.421875 L 3.375 -11.421875 L 3.375 -6.953125 L 9.875 -6.953125 L 9.875 -5.828125 L 3.375 -5.828125 L 3.375 -1.15625 Z M 10.9375 -1.15625 "/></g></g></g><g fill="#ffffff" fill-opacity="1"><g transform="translate(290.796384, 192.860201)"><g><path d="M 10.640625 0 L 7.765625 -4.046875 C 7.441406 -4.003906 7.101562 -3.984375 6.75 -3.984375 L 3.375 -3.984375 L 3.375 0 L 2.046875 0 L 2.046875 -12.578125 L 6.75 -12.578125 C 8.351562 -12.578125 9.609375 -12.191406 10.515625 -11.421875 C 11.429688 -10.660156 11.890625 -9.609375 11.890625 -8.265625 C 11.890625 -7.285156 11.640625 -6.457031 11.140625 -5.78125 C 10.648438 -5.101562 9.941406 -4.613281 9.015625 -4.3125 L 12.09375 0 Z M 6.71875 -5.125 C 7.96875 -5.125 8.921875 -5.398438 9.578125 -5.953125 C 10.234375 -6.503906 10.5625 -7.273438 10.5625 -8.265625 C 10.5625 -9.285156 10.234375 -10.066406 9.578125 -10.609375 C 8.921875 -11.148438 7.96875 -11.421875 6.71875 -11.421875 L 3.375 -11.421875 L 3.375 -5.125 Z M 6.71875 -5.125 "/></g></g></g><g fill="#ffffff" fill-opacity="1"><g transform="translate(307.071873, 192.860201)"><g><path d="M 4.484375 -11.421875 L 0.078125 -11.421875 L 0.078125 -12.578125 L 10.234375 -12.578125 L 10.234375 -11.421875 L 5.828125 -11.421875 L 5.828125 0 L 4.484375 0 Z M 4.484375 -11.421875 "/></g></g></g><g fill="#ffffff" fill-opacity="1"><g transform="translate(320.671296, 192.860201)"><g><path d="M 9.9375 -3.359375 L 2.921875 -3.359375 L 1.421875 0 L 0.03125 0 L 5.78125 -12.578125 L 7.09375 -12.578125 L 12.84375 0 L 11.453125 0 Z M 9.453125 -4.4375 L 6.4375 -11.1875 L 3.40625 -4.4375 Z M 9.453125 -4.4375 "/></g></g></g><g fill="#ffffff" fill-opacity="1"><g transform="translate(336.839033, 192.860201)"><g><path d="M 5.515625 0.109375 C 4.578125 0.109375 3.679688 -0.0390625 2.828125 -0.34375 C 1.972656 -0.644531 1.3125 -1.039062 0.84375 -1.53125 L 1.359375 -2.546875 C 1.816406 -2.097656 2.421875 -1.734375 3.171875 -1.453125 C 3.929688 -1.171875 4.710938 -1.03125 5.515625 -1.03125 C 6.640625 -1.03125 7.484375 -1.234375 8.046875 -1.640625 C 8.609375 -2.054688 8.890625 -2.59375 8.890625 -3.25 C 8.890625 -3.75 8.738281 -4.148438 8.4375 -4.453125 C 8.132812 -4.753906 7.757812 -4.984375 7.3125 -5.140625 C 6.863281 -5.304688 6.25 -5.484375 5.46875 -5.671875 C 4.519531 -5.910156 3.765625 -6.140625 3.203125 -6.359375 C 2.640625 -6.585938 2.15625 -6.925781 1.75 -7.375 C 1.351562 -7.832031 1.15625 -8.453125 1.15625 -9.234375 C 1.15625 -9.867188 1.320312 -10.445312 1.65625 -10.96875 C 1.988281 -11.488281 2.5 -11.90625 3.1875 -12.21875 C 3.882812 -12.53125 4.75 -12.6875 5.78125 -12.6875 C 6.5 -12.6875 7.203125 -12.585938 7.890625 -12.390625 C 8.585938 -12.191406 9.1875 -11.921875 9.6875 -11.578125 L 9.234375 -10.515625 C 8.703125 -10.859375 8.132812 -11.113281 7.53125 -11.28125 C 6.9375 -11.457031 6.351562 -11.546875 5.78125 -11.546875 C 4.675781 -11.546875 3.847656 -11.332031 3.296875 -10.90625 C 2.742188 -10.488281 2.46875 -9.941406 2.46875 -9.265625 C 2.46875 -8.765625 2.617188 -8.359375 2.921875 -8.046875 C 3.222656 -7.742188 3.601562 -7.507812 4.0625 -7.34375 C 4.53125 -7.1875 5.148438 -7.015625 5.921875 -6.828125 C 6.847656 -6.597656 7.59375 -6.375 8.15625 -6.15625 C 8.726562 -5.9375 9.210938 -5.597656 9.609375 -5.140625 C 10.003906 -4.691406 10.203125 -4.085938 10.203125 -3.328125 C 10.203125 -2.691406 10.03125 -2.113281 9.6875 -1.59375 C 9.351562 -1.070312 8.832031 -0.65625 8.125 -0.34375 C 7.414062 -0.0390625 6.546875 0.109375 5.515625 0.109375 Z M 5.515625 0.109375 "/></g></g></g><g fill="#ffffff" fill-opacity="1"><g transform="translate(63.762993, 217.316723)"><g><path d="M 2.046875 -12.578125 L 3.375 -12.578125 L 3.375 0 L 2.046875 0 Z M 2.046875 -12.578125 "/></g></g></g><g fill="#ffffff" fill-opacity="1"><g transform="translate(72.477235, 217.316723)"><g><path d="M 12.5625 -12.578125 L 12.5625 0 L 11.46875 0 L 3.375 -10.203125 L 3.375 0 L 2.046875 0 L 2.046875 -12.578125 L 3.140625 -12.578125 L 11.25 -2.375 L 11.25 -12.578125 Z M 12.5625 -12.578125 "/></g></g></g><g fill="#ffffff" fill-opacity="1"><g transform="translate(90.369142, 217.316723)"><g><path d="M 5.515625 0.109375 C 4.578125 0.109375 3.679688 -0.0390625 2.828125 -0.34375 C 1.972656 -0.644531 1.3125 -1.039062 0.84375 -1.53125 L 1.359375 -2.546875 C 1.816406 -2.097656 2.421875 -1.734375 3.171875 -1.453125 C 3.929688 -1.171875 4.710938 -1.03125 5.515625 -1.03125 C 6.640625 -1.03125 7.484375 -1.234375 8.046875 -1.640625 C 8.609375 -2.054688 8.890625 -2.59375 8.890625 -3.25 C 8.890625 -3.75 8.738281 -4.148438 8.4375 -4.453125 C 8.132812 -4.753906 7.757812 -4.984375 7.3125 -5.140625 C 6.863281 -5.304688 6.25 -5.484375 5.46875 -5.671875 C 4.519531 -5.910156 3.765625 -6.140625 3.203125 -6.359375 C 2.640625 -6.585938 2.15625 -6.925781 1.75 -7.375 C 1.351562 -7.832031 1.15625 -8.453125 1.15625 -9.234375 C 1.15625 -9.867188 1.320312 -10.445312 1.65625 -10.96875 C 1.988281 -11.488281 2.5 -11.90625 3.1875 -12.21875 C 3.882812 -12.53125 4.75 -12.6875 5.78125 -12.6875 C 6.5 -12.6875 7.203125 -12.585938 7.890625 -12.390625 C 8.585938 -12.191406 9.1875 -11.921875 9.6875 -11.578125 L 9.234375 -10.515625 C 8.703125 -10.859375 8.132812 -11.113281 7.53125 -11.28125 C 6.9375 -11.457031 6.351562 -11.546875 5.78125 -11.546875 C 4.675781 -11.546875 3.847656 -11.332031 3.296875 -10.90625 C 2.742188 -10.488281 2.46875 -9.941406 2.46875 -9.265625 C 2.46875 -8.765625 2.617188 -8.359375 2.921875 -8.046875 C 3.222656 -7.742188 3.601562 -7.507812 4.0625 -7.34375 C 4.53125 -7.1875 5.148438 -7.015625 5.921875 -6.828125 C 6.847656 -6.597656 7.59375 -6.375 8.15625 -6.15625 C 8.726562 -5.9375 9.210938 -5.597656 9.609375 -5.140625 C 10.003906 -4.691406 10.203125 -4.085938 10.203125 -3.328125 C 10.203125 -2.691406 10.03125 -2.113281 9.6875 -1.59375 C 9.351562 -1.070312 8.832031 -0.65625 8.125 -0.34375 C 7.414062 -0.0390625 6.546875 0.109375 5.515625 0.109375 Z M 5.515625 0.109375 "/></g></g></g><g fill="#ffffff" fill-opacity="1"><g transform="translate(104.704936, 217.316723)"><g><path d="M 2.046875 -12.578125 L 7.171875 -12.578125 C 8.492188 -12.578125 9.664062 -12.3125 10.6875 -11.78125 C 11.707031 -11.25 12.5 -10.503906 13.0625 -9.546875 C 13.625 -8.597656 13.90625 -7.507812 13.90625 -6.28125 C 13.90625 -5.0625 13.625 -3.972656 13.0625 -3.015625 C 12.5 -2.066406 11.707031 -1.328125 10.6875 -0.796875 C 9.664062 -0.265625 8.492188 0 7.171875 0 L 2.046875 0 Z M 7.09375 -1.15625 C 8.195312 -1.15625 9.160156 -1.375 9.984375 -1.8125 C 10.816406 -2.25 11.457031 -2.851562 11.90625 -3.625 C 12.363281 -4.394531 12.59375 -5.28125 12.59375 -6.28125 C 12.59375 -7.289062 12.363281 -8.179688 11.90625 -8.953125 C 11.457031 -9.722656 10.816406 -10.328125 9.984375 -10.765625 C 9.160156 -11.203125 8.195312 -11.421875 7.09375 -11.421875 L 3.375 -11.421875 L 3.375 -1.15625 Z M 7.09375 -1.15625 "/></g></g></g><g fill="#ffffff" fill-opacity="1"><g transform="translate(122.830324, 217.316723)"><g><path d="M 7.109375 0.109375 C 5.484375 0.109375 4.210938 -0.351562 3.296875 -1.28125 C 2.390625 -2.21875 1.9375 -3.582031 1.9375 -5.375 L 1.9375 -12.578125 L 3.265625 -12.578125 L 3.265625 -5.421875 C 3.265625 -3.960938 3.59375 -2.875 4.25 -2.15625 C 4.914062 -1.4375 5.867188 -1.078125 7.109375 -1.078125 C 8.367188 -1.078125 9.328125 -1.4375 9.984375 -2.15625 C 10.648438 -2.875 10.984375 -3.960938 10.984375 -5.421875 L 10.984375 -12.578125 L 12.265625 -12.578125 L 12.265625 -5.375 C 12.265625 -3.582031 11.8125 -2.21875 10.90625 -1.28125 C 10.007812 -0.351562 8.742188 0.109375 7.109375 0.109375 Z M 7.109375 0.109375 "/></g></g></g><g fill="#ffffff" fill-opacity="1"><g transform="translate(140.345072, 217.316723)"><g><path d="M 5.515625 0.109375 C 4.578125 0.109375 3.679688 -0.0390625 2.828125 -0.34375 C 1.972656 -0.644531 1.3125 -1.039062 0.84375 -1.53125 L 1.359375 -2.546875 C 1.816406 -2.097656 2.421875 -1.734375 3.171875 -1.453125 C 3.929688 -1.171875 4.710938 -1.03125 5.515625 -1.03125 C 6.640625 -1.03125 7.484375 -1.234375 8.046875 -1.640625 C 8.609375 -2.054688 8.890625 -2.59375 8.890625 -3.25 C 8.890625 -3.75 8.738281 -4.148438 8.4375 -4.453125 C 8.132812 -4.753906 7.757812 -4.984375 7.3125 -5.140625 C 6.863281 -5.304688 6.25 -5.484375 5.46875 -5.671875 C 4.519531 -5.910156 3.765625 -6.140625 3.203125 -6.359375 C 2.640625 -6.585938 2.15625 -6.925781 1.75 -7.375 C 1.351562 -7.832031 1.15625 -8.453125 1.15625 -9.234375 C 1.15625 -9.867188 1.320312 -10.445312 1.65625 -10.96875 C 1.988281 -11.488281 2.5 -11.90625 3.1875 -12.21875 C 3.882812 -12.53125 4.75 -12.6875 5.78125 -12.6875 C 6.5 -12.6875 7.203125 -12.585938 7.890625 -12.390625 C 8.585938 -12.191406 9.1875 -11.921875 9.6875 -11.578125 L 9.234375 -10.515625 C 8.703125 -10.859375 8.132812 -11.113281 7.53125 -11.28125 C 6.9375 -11.457031 6.351562 -11.546875 5.78125 -11.546875 C 4.675781 -11.546875 3.847656 -11.332031 3.296875 -10.90625 C 2.742188 -10.488281 2.46875 -9.941406 2.46875 -9.265625 C 2.46875 -8.765625 2.617188 -8.359375 2.921875 -8.046875 C 3.222656 -7.742188 3.601562 -7.507812 4.0625 -7.34375 C 4.53125 -7.1875 5.148438 -7.015625 5.921875 -6.828125 C 6.847656 -6.597656 7.59375 -6.375 8.15625 -6.15625 C 8.726562 -5.9375 9.210938 -5.597656 9.609375 -5.140625 C 10.003906 -4.691406 10.203125 -4.085938 10.203125 -3.328125 C 10.203125 -2.691406 10.03125 -2.113281 9.6875 -1.59375 C 9.351562 -1.070312 8.832031 -0.65625 8.125 -0.34375 C 7.414062 -0.0390625 6.546875 0.109375 5.515625 0.109375 Z M 5.515625 0.109375 "/></g></g></g><g fill="#ffffff" fill-opacity="1"><g transform="translate(154.680863, 217.316723)"><g><path d="M 4.484375 -11.421875 L 0.078125 -11.421875 L 0.078125 -12.578125 L 10.234375 -12.578125 L 10.234375 -11.421875 L 5.828125 -11.421875 L 5.828125 0 L 4.484375 0 Z M 4.484375 -11.421875 "/></g></g></g><g fill="#ffffff" fill-opacity="1"><g transform="translate(168.280279, 217.316723)"><g><path d="M 10.640625 0 L 7.765625 -4.046875 C 7.441406 -4.003906 7.101562 -3.984375 6.75 -3.984375 L 3.375 -3.984375 L 3.375 0 L 2.046875 0 L 2.046875 -12.578125 L 6.75 -12.578125 C 8.351562 -12.578125 9.609375 -12.191406 10.515625 -11.421875 C 11.429688 -10.660156 11.890625 -9.609375 11.890625 -8.265625 C 11.890625 -7.285156 11.640625 -6.457031 11.140625 -5.78125 C 10.648438 -5.101562 9.941406 -4.613281 9.015625 -4.3125 L 12.09375 0 Z M 6.71875 -5.125 C 7.96875 -5.125 8.921875 -5.398438 9.578125 -5.953125 C 10.234375 -6.503906 10.5625 -7.273438 10.5625 -8.265625 C 10.5625 -9.285156 10.234375 -10.066406 9.578125 -10.609375 C 8.921875 -11.148438 7.96875 -11.421875 6.71875 -11.421875 L 3.375 -11.421875 L 3.375 -5.125 Z M 6.71875 -5.125 "/></g></g></g><g fill="#ffffff" fill-opacity="1"><g transform="translate(184.555782, 217.316723)"><g><path d="M 2.046875 -12.578125 L 3.375 -12.578125 L 3.375 0 L 2.046875 0 Z M 2.046875 -12.578125 "/></g></g></g><g fill="#ffffff" fill-opacity="1"><g transform="translate(193.270029, 217.316723)"><g><path d="M 9.9375 -3.359375 L 2.921875 -3.359375 L 1.421875 0 L 0.03125 0 L 5.78125 -12.578125 L 7.09375 -12.578125 L 12.84375 0 L 11.453125 0 Z M 9.453125 -4.4375 L 6.4375 -11.1875 L 3.40625 -4.4375 Z M 9.453125 -4.4375 "/></g></g></g><g fill="#ffffff" fill-opacity="1"><g transform="translate(209.437766, 217.316723)"><g><path d="M 2.046875 -12.578125 L 3.375 -12.578125 L 3.375 -1.15625 L 10.421875 -1.15625 L 10.421875 0 L 2.046875 0 Z M 2.046875 -12.578125 "/></g></g></g><g fill="#ffffff" fill-opacity="1"><g transform="translate(223.306595, 217.316723)"><g><path d="M 10.9375 -1.15625 L 10.9375 0 L 2.046875 0 L 2.046875 -12.578125 L 10.671875 -12.578125 L 10.671875 -11.421875 L 3.375 -11.421875 L 3.375 -6.953125 L 9.875 -6.953125 L 9.875 -5.828125 L 3.375 -5.828125 L 3.375 -1.15625 Z M 10.9375 -1.15625 "/></g></g></g><g fill="#ffffff" fill-opacity="1"><g transform="translate(238.612238, 217.316723)"><g><path d="M 5.515625 0.109375 C 4.578125 0.109375 3.679688 -0.0390625 2.828125 -0.34375 C 1.972656 -0.644531 1.3125 -1.039062 0.84375 -1.53125 L 1.359375 -2.546875 C 1.816406 -2.097656 2.421875 -1.734375 3.171875 -1.453125 C 3.929688 -1.171875 4.710938 -1.03125 5.515625 -1.03125 C 6.640625 -1.03125 7.484375 -1.234375 8.046875 -1.640625 C 8.609375 -2.054688 8.890625 -2.59375 8.890625 -3.25 C 8.890625 -3.75 8.738281 -4.148438 8.4375 -4.453125 C 8.132812 -4.753906 7.757812 -4.984375 7.3125 -5.140625 C 6.863281 -5.304688 6.25 -5.484375 5.46875 -5.671875 C 4.519531 -5.910156 3.765625 -6.140625 3.203125 -6.359375 C 2.640625 -6.585938 2.15625 -6.925781 1.75 -7.375 C 1.351562 -7.832031 1.15625 -8.453125 1.15625 -9.234375 C 1.15625 -9.867188 1.320312 -10.445312 1.65625 -10.96875 C 1.988281 -11.488281 2.5 -11.90625 3.1875 -12.21875 C 3.882812 -12.53125 4.75 -12.6875 5.78125 -12.6875 C 6.5 -12.6875 7.203125 -12.585938 7.890625 -12.390625 C 8.585938 -12.191406 9.1875 -11.921875 9.6875 -11.578125 L 9.234375 -10.515625 C 8.703125 -10.859375 8.132812 -11.113281 7.53125 -11.28125 C 6.9375 -11.457031 6.351562 -11.546875 5.78125 -11.546875 C 4.675781 -11.546875 3.847656 -11.332031 3.296875 -10.90625 C 2.742188 -10.488281 2.46875 -9.941406 2.46875 -9.265625 C 2.46875 -8.765625 2.617188 -8.359375 2.921875 -8.046875 C 3.222656 -7.742188 3.601562 -7.507812 4.0625 -7.34375 C 4.53125 -7.1875 5.148438 -7.015625 5.921875 -6.828125 C 6.847656 -6.597656 7.59375 -6.375 8.15625 -6.15625 C 8.726562 -5.9375 9.210938 -5.597656 9.609375 -5.140625 C 10.003906 -4.691406 10.203125 -4.085938 10.203125 -3.328125 C 10.203125 -2.691406 10.03125 -2.113281 9.6875 -1.59375 C 9.351562 -1.070312 8.832031 -0.65625 8.125 -0.34375 C 7.414062 -0.0390625 6.546875 0.109375 5.515625 0.109375 Z M 5.515625 0.109375 "/></g></g></g><g fill="#ffffff" fill-opacity="1"><g transform="translate(252.948036, 217.316723)"><g/></g></g><g fill="#ffffff" fill-opacity="1"><g transform="translate(260.943876, 217.316723)"><g><path d="M 15.109375 -12.578125 L 15.109375 0 L 13.828125 0 L 13.828125 -10.0625 L 8.890625 -1.59375 L 8.265625 -1.59375 L 3.328125 -10.015625 L 3.328125 0 L 2.046875 0 L 2.046875 -12.578125 L 3.140625 -12.578125 L 8.609375 -3.25 L 14.015625 -12.578125 Z M 15.109375 -12.578125 "/></g></g></g><g fill="#ffffff" fill-opacity="1"><g transform="translate(281.386148, 217.316723)"><g><path d="M 15.109375 -12.578125 L 15.109375 0 L 13.828125 0 L 13.828125 -10.0625 L 8.890625 -1.59375 L 8.265625 -1.59375 L 3.328125 -10.015625 L 3.328125 0 L 2.046875 0 L 2.046875 -12.578125 L 3.140625 -12.578125 L 8.609375 -3.25 L 14.015625 -12.578125 Z M 15.109375 -12.578125 "/></g></g></g></svg>