<svg xmlns="http://www.w3.org/2000/svg" xmlns:xlink="http://www.w3.org/1999/xlink" width="512" zoomAndPan="magnify" viewBox="0 0 384 383.999986" height="512" preserveAspectRatio="xMidYMid meet" version="1.0"><path fill="#65e7de" d="M 192 384 C 298.039062 384 384 298.039062 384 192 C 384 85.960938 298.039062 0 192 0 C 85.960938 0 0 85.960938 0 192 C 0 298.039062 85.960938 384 192 384 Z M 104.796875 110.316406 L 192 180.078125 L 279.203125 110.316406 L 281.71875 108.21875 L 102.28125 108.21875 Z M 291.050781 124.679688 L 294.398438 121.886719 L 294.398438 266.472656 C 294.398438 271.613281 290.230469 275.78125 285.089844 275.78125 L 98.910156 275.78125 C 93.769531 275.78125 89.601562 271.613281 89.601562 266.472656 L 89.601562 121.886719 L 92.949219 124.679688 L 93.09375 124.796875 L 186.183594 199.269531 C 189.585938 201.988281 194.414062 201.988281 197.816406 199.269531 L 290.90625 124.796875 Z M 291.050781 124.679688 " fill-opacity="1" fill-rule="evenodd"/></svg>