<svg xmlns="http://www.w3.org/2000/svg" xmlns:xlink="http://www.w3.org/1999/xlink" width="512" zoomAndPan="magnify" viewBox="0 0 384 383.999986" height="512" preserveAspectRatio="xMidYMid meet" version="1.0"><path fill="#65e7de" d="M 192 384 C 298.039062 384 384 298.039062 384 192 C 384 85.960938 298.039062 0 192 0 C 85.960938 0 0 85.960938 0 192 C 0 298.039062 85.960938 384 192 384 Z M 96.300781 173.054688 C 86.171875 159.15625 87.667969 139.957031 99.828125 127.796875 L 131.207031 96.417969 C 141.167969 86.457031 157.625 87.558594 166.171875 98.757812 L 187.246094 126.378906 C 194.320312 135.648438 193.445312 148.71875 185.199219 156.960938 L 184.101562 158.058594 C 180.144531 162.019531 179.566406 168.234375 182.722656 172.855469 L 183.132812 173.460938 C 190.484375 184.21875 199.78125 193.515625 210.539062 200.867188 L 211.144531 201.277344 C 215.765625 204.433594 221.980469 203.855469 225.941406 199.898438 L 227.039062 198.800781 C 235.28125 190.554688 248.351562 189.679688 257.621094 196.753906 L 285.242188 217.828125 C 296.441406 226.375 297.542969 242.832031 287.582031 252.792969 L 256.203125 284.171875 C 244.042969 296.332031 224.84375 297.828125 210.945312 287.699219 L 160.863281 251.199219 C 150.105469 243.359375 140.640625 233.894531 132.800781 223.136719 Z M 244.082031 116.640625 L 244.082031 99.179688 L 267.359375 99.179688 L 267.359375 116.640625 L 284.820312 116.640625 L 284.820312 139.917969 L 267.359375 139.917969 L 267.359375 157.378906 L 244.082031 157.378906 L 244.082031 139.917969 L 226.621094 139.917969 L 226.621094 116.640625 Z M 244.082031 116.640625 " fill-opacity="1" fill-rule="evenodd"/></svg>