<svg xmlns="http://www.w3.org/2000/svg" xmlns:xlink="http://www.w3.org/1999/xlink" width="512" zoomAndPan="magnify" viewBox="0 0 384 383.999986" height="512" preserveAspectRatio="xMidYMid meet" version="1.0"><path fill="#65e7de" d="M 192 384 C 298.039062 384 384 298.039062 384 192 C 384 85.960938 298.039062 0 192 0 C 85.960938 0 0 85.960938 0 192 C 0 298.039062 85.960938 384 192 384 Z M 192 284.160156 C 186.957031 293.074219 186.953125 293.070312 186.953125 293.070312 L 186.945312 293.066406 L 186.925781 293.054688 L 186.863281 293.019531 L 186.648438 292.894531 C 186.46875 292.792969 186.214844 292.644531 185.886719 292.453125 C 185.238281 292.070312 184.300781 291.511719 183.125 290.789062 C 180.769531 289.34375 177.4375 287.234375 173.457031 284.535156 C 165.507812 279.148438 154.867188 271.347656 144.183594 261.710938 C 143.363281 260.972656 142.539062 260.21875 141.710938 259.449219 L 148.277344 247.257812 C 157.289062 232.519531 173.503906 222.71875 192 222.71875 C 210.492188 222.71875 226.710938 232.519531 235.71875 247.257812 L 242.289062 259.449219 C 241.460938 260.21875 240.636719 260.972656 239.816406 261.710938 C 229.132812 271.347656 218.492188 279.148438 210.542969 284.535156 C 206.5625 287.234375 203.230469 289.34375 200.875 290.789062 C 199.699219 291.511719 198.761719 292.070312 198.113281 292.453125 C 197.785156 292.644531 197.53125 292.792969 197.351562 292.894531 L 197.136719 293.019531 L 197.074219 293.054688 L 197.054688 293.066406 L 197.046875 293.070312 C 197.046875 293.070312 197.042969 293.074219 192 284.160156 Z M 192 284.160156 L 197.042969 293.074219 C 193.914062 294.84375 190.085938 294.84375 186.957031 293.074219 Z M 130.375 237.3125 L 126.753906 244.03125 C 112.128906 227.089844 99.839844 206.042969 99.839844 182.785156 C 99.839844 131.441406 140.980469 89.601562 192 89.601562 C 243.019531 89.601562 284.160156 131.441406 284.160156 182.785156 C 284.160156 206.042969 271.871094 227.089844 257.246094 244.03125 L 253.625 237.3125 L 253.503906 237.085938 L 253.371094 236.867188 C 240.832031 216.136719 218.042969 202.238281 192 202.238281 C 165.957031 202.238281 143.167969 216.136719 130.628906 236.867188 L 130.496094 237.085938 Z M 156.160156 161.28125 C 156.160156 141.484375 172.207031 125.441406 192 125.441406 C 211.792969 125.441406 227.839844 141.484375 227.839844 161.28125 C 227.839844 181.074219 211.792969 197.121094 192 197.121094 C 172.207031 197.121094 156.160156 181.074219 156.160156 161.28125 Z M 156.160156 161.28125 " fill-opacity="1" fill-rule="evenodd"/></svg>